<svg xmlns="http://www.w3.org/2000/svg" viewBox="0 0 1921 557.13"><defs><style>.cls-1{stroke:#231f20;stroke-miterlimit:10;}</style></defs><g id="Layer_2" data-name="Layer 2"><g id="Layer_2-2" data-name="Layer 2"><path class="cls-1" d="M.5,79.1,15.05,50.3,106,147.7l31.17,19.8,66.24,97.41,67.53-18.51,79.22,107.79,58.44-47.72,93.51,153.24,96.18-22.37A256.07,256.07,0,0,1,699.46,500a249.25,249.25,0,0,1,124.31-80.22l87.38,46.46a378.32,378.32,0,0,0,206.49-88.32l93.51,58.45,88.31,6.16,76.62,66.56a142.17,142.17,0,0,0,89.61-112l66.24,12,149.35-84.74,94.4-153.67,90-60.61L1920.5,2.09V556.63H.5Z"/></g></g></svg>