<svg xmlns="http://www.w3.org/2000/svg" viewBox="0 0 1921 495.89"><defs><style>.cls-1{stroke:#231f20;stroke-miterlimit:10;opacity:0.69;}</style></defs><g id="Layer_2" data-name="Layer 2"><g id="Layer_3" data-name="Layer 3"><path class="cls-1" d="M.5,271,167.12,26.59q34.4,57.29,68.77,114.58a117.87,117.87,0,0,0,119.43-1.3l84.38,97.24c22.17-1.41,46.06-3.81,71.4-7.63a833.73,833.73,0,0,0,83.08-16.89C635.52,274.6,680,311.76,711,333.37c51.6,35.95,99.42,52.12,191.85,82.65,56.29,18.59,104,31.23,137.87,39.43a827.65,827.65,0,0,1,321.94-163.64,277.86,277.86,0,0,1,81.78,32.47L1577,181.68l73.86-79.48,75.93-.9a355,355,0,0,0,40.91-36.86,355.46,355.46,0,0,0,48-63.53L1920.5,143.76V495.39H.5Z"/></g></g></svg>