<svg xmlns="http://www.w3.org/2000/svg" viewBox="0 0 1434.13 276.18"><defs><style>.cls-1{stroke:#231f20;stroke-miterlimit:10;opacity:0.63;}</style></defs><g id="Layer_2" data-name="Layer 2"><g id="Layer_4" data-name="Layer 4"><path class="cls-1" d="M1,275.68A1062.55,1062.55,0,0,1,275,25.36L320.5,57.18,437.38,30.55q67.85,54.18,135.06,109.09,40.38,33,80.52,66.24l131.17-101.3a120,120,0,0,0,28.57,24.67,119.43,119.43,0,0,0,30.14,13.29,444.37,444.37,0,0,0,54.28-50.95,445,445,0,0,0,43.21-56.47l90.55,51.28a244.32,244.32,0,0,0,84.42-27.28A244.2,244.2,0,0,0,1186.73.68l89.61,66.24,145.45,44.15q5.91,82.31,11.8,164.61Z"/></g></g></svg>